<svg version="1.1" viewBox="0.0 0.0 960.0 720.0" fill="none" stroke="none" stroke-linecap="square" stroke-miterlimit="10" xmlns:xlink="http://www.w3.org/1999/xlink" xmlns="http://www.w3.org/2000/svg"><clipPath id="p.0"><path d="m0 0l960.0 0l0 720.0l-960.0 0l0 -720.0z" clip-rule="nonzero"/></clipPath><g clip-path="url(#p.0)"><path fill="#000000" fill-opacity="0.0" d="m0 0l960.0 0l0 720.0l-960.0 0z" fill-rule="evenodd"/><path fill="#000000" fill-opacity="0.0" d="m55.84777 231.41112l187.3071 0l0 213.32283l-187.3071 0z" fill-rule="evenodd"/><path fill="#ff0000" d="m170.70714 300.18298l-36.328125 0l0 93.828125l-29.999992 0l0 -93.828125l-36.328125 0l0 -22.5l102.65624 0l0 22.5z" fill-rule="nonzero"/><path fill="#000000" fill-opacity="0.0" d="m176.1413 231.41112l187.3071 0l0 197.13387l-187.3071 0z" fill-rule="evenodd"/><path fill="#ff0000" d="m292.12567 342.61737q0 19.765625 -12.03125 30.296875q-12.03125 10.515625 -35.453125 10.515625q-23.40625 0 -35.40625 -10.515625q-11.984375 -10.53125 -11.984375 -30.234375l0 -68.09375l27.640625 0l0 66.53125q0 11.09375 4.640625 16.53125q4.65625 5.4375 15.109375 5.4375q10.3125 0 15.078125 -5.21875q4.765625 -5.234375 4.765625 -16.75l0 -66.53125l27.640625 0l0 68.03125z" fill-rule="nonzero"/><path fill="#000000" fill-opacity="0.0" d="m300.19458 230.49081l187.3071 0l0 180.97638l-187.3071 0z" fill-rule="evenodd"/><path fill="#ff0000" d="m404.50708 337.8033q0 7.03125 -2.84375 12.5625q-2.828125 5.53125 -7.765625 9.1875q-5.734375 4.296875 -12.609375 6.125q-6.859375 1.8125 -17.40625 1.8125l-42.3125 0l0 -96.9375l37.625 0q11.71875 0 17.15625 0.78125q5.4375 0.78125 10.765625 3.453125q5.53125 2.796875 8.234375 7.515625q2.703125 4.71875 2.703125 10.78125q0 7.03125 -3.71875 12.40625q-3.703125 5.359375 -10.46875 8.359375l0 0.515625q9.5 1.890625 15.0625 7.8125q5.578125 5.921875 5.578125 15.625zm-32.03125 -39.84375q0 -2.40625 -1.203125 -4.8125q-1.203125 -2.40625 -4.265625 -3.578125q-2.734375 -1.046875 -6.8125 -1.140625q-4.0625 -0.09375 -11.421875 -0.09375l-2.34375 0l0 20.5l3.90625 0q5.921875 0 10.09375 -0.1875q4.171875 -0.203125 6.578125 -1.3125q3.390625 -1.5 4.421875 -3.875q1.046875 -2.375 1.046875 -5.5zm6.109375 39.453125q0 -4.625 -1.796875 -7.125q-1.78125 -2.515625 -6.078125 -3.75q-2.921875 -0.84375 -8.0625 -0.90625q-5.140625 -0.0625 -10.75 -0.0625l-5.46875 0l0 24.15625l1.828125 0q10.546875 0 15.09375 -0.0625q4.5625 -0.078125 8.40625 -1.703125q3.90625 -1.625 5.359375 -4.328125q1.46875 -2.703125 1.46875 -6.21875z" fill-rule="nonzero"/><path fill="#000000" fill-opacity="0.0" d="m415.49304 230.49081l187.30713 0l0 172.91339l-187.30713 0z" fill-rule="evenodd"/><path fill="#ff0000" d="m502.85242 361.09082l-66.609375 0l0 -92.078125l66.609375 0l0 17.796875l-42.984375 0l0 15.90625l39.890625 0l0 17.8125l-39.890625 0l0 22.75l42.984375 0l0 17.8125z" fill-rule="nonzero"/><path fill="#000000" fill-opacity="0.0" d="m517.5525 230.49081l187.30707 0l0 172.91339l-187.30707 0z" fill-rule="evenodd"/><path fill="#ff0000" d="m604.28687 286.80957l-42.359375 0l0 17.140625l39.265625 0l0 17.8125l-39.265625 0l0 39.328125l-23.625 0l0 -92.078125l65.984375 0l0 17.796875z" fill-rule="nonzero"/><path fill="#000000" fill-opacity="0.0" d="m610.11694 231.93929l187.30707 0l0 180.9764l-187.30707 0z" fill-rule="evenodd"/><path fill="#ff0000" d="m701.3982 368.9393l-69.90625 0l0 -96.9375l25.0 0l0 78.1875l44.90625 0l0 18.75z" fill-rule="nonzero"/><path fill="#000000" fill-opacity="0.0" d="m709.04767 231.93929l187.30707 0l0 197.13387l-187.30707 0z" fill-rule="evenodd"/><path fill="#ff0000" d="m789.29767 381.7393l-62.4375 0l0 -18.90625l17.46875 0l0 -68.8125l-17.46875 0l0 -18.90625l62.4375 0l0 18.90625l-17.46875 0l0 68.8125l17.46875 0l0 18.90625z" fill-rule="nonzero"/><path fill="#000000" fill-opacity="0.0" d="m789.13257 231.93929l187.30713 0l0 213.32283l-187.30713 0z" fill-rule="evenodd"/><path fill="#ff0000" d="m918.44507 394.53928l-34.6875 0l-25.078125 -38.28125l-25.546875 38.28125l-33.125 0l41.25 -58.59375l-40.390625 -57.734375l34.609375 0l24.21875 36.25l24.921875 -36.25l33.203125 0l-40.625 56.5625l41.25 59.765625z" fill-rule="nonzero"/></g></svg>